<?xml version="1.0" encoding="utf-8"?>
<!-- Generator: Adobe Illustrator 19.1.1, SVG Export Plug-In . SVG Version: 6.00 Build 0)  -->
<svg version="1.1" id="_x31_0" xmlns="http://www.w3.org/2000/svg" xmlns:xlink="http://www.w3.org/1999/xlink" x="0px" y="0px"
	 viewBox="0 0 512 512" style="enable-background:new 0 0 512 512;" xml:space="preserve">
<style type="text/css">
	.st0{fill:#fff;}
</style>
<g>
	<path class="st0" d="M51.627,215.051c0,5.886,4.778,10.699,10.699,10.699c5.922,0,10.73-4.813,10.73-10.699
		c0-5.926-4.808-10.734-10.73-10.734C56.404,204.317,51.627,209.125,51.627,215.051z"/>
	<path class="st0" d="M500.946,167.797c-17.945,5.821-37.007,8.442-52.64,9.594c-0.793,0.05-1.645,0.113-2.398,0.152
		c0.007,0.015,0.015,0.039,0.027,0.058c-0.054,0.004-0.118,0.012-0.168,0.012c0.926,1.809,1.781,3.656,2.645,5.5
		c0.785,1.676,1.542,3.367,2.277,5.07c1.684,3.922,3.226,7.922,4.625,11.992c0.504,1.469,0.989,2.946,1.454,4.43
		c1.347,4.301,2.531,8.672,3.554,13.114c0.34,1.48,0.664,2.968,0.969,4.465c0.894,4.382,1.625,8.828,2.203,13.328
		c0.218,1.734,0.422,3.476,0.598,5.226c0.222,2.258,0.454,4.508,0.598,6.789c17.946-12.902,37.817-34.535,47.023-69.574
		C513.407,171.454,507.348,165.734,500.946,167.797z"/>
	<path class="st0" d="M447.454,322.438l3.79-23.934l1.351-8.668c0.61-3.793,0.34-7.618-0.774-11.207
		c-0.102-0.34-0.207-0.68-0.336-0.984c0.336-4.637,0.504-9.309,0.504-14.012c0-23.586-4.382-45.285-12.109-64.812
		c-0.356-0.91-0.637-1.864-1.008-2.766c-1.02-2.442-2.219-4.758-3.348-7.13c-1.336-2.839-2.621-5.706-4.11-8.445
		c-0.324-0.59-0.702-1.141-1.034-1.723c-20.782-37.113-55.465-64.289-98.821-76.222c-1.714-0.484-3.503-0.793-5.238-1.226
		c-3.406-0.828-6.774-1.734-10.278-2.378c-11.5-2.18-23.406-3.348-35.629-3.348c-66.266,0-123.718,33.207-152.293,87.515
		c-0.203,0.375-0.434,0.73-0.629,1.11c-0.512-0.305-1.086-0.539-1.625-0.844c-1.286-0.644-2.606-1.285-3.891-1.93
		c-19.738-9.48-38.125-14.59-54.71-15.168c-1.051-0.035-2.102-0.066-3.118-0.066c-20.171,0-37.202,7.039-48.679,19.332
		c-6.328,6.766-10.969,15.199-13.477,24.914c-7.816,30.402,7.856,63.273,38.125,79.93c14.114,7.789,30.13,11.714,47.562,11.714
		c8.329,0,16.149-0.914,23.055-2.199l3.554,22.547c1.016,6.5,4.438,12.086,9.278,15.945c-19.297,22.41-17.266,40.691-13.711,50.477
		c6.094,16.758,23.562,27.558,44.519,27.558c8.227,0,16.723-1.695,24.578-4.875c37.305-15.203,50.543-49.937,54.942-67.64h102.378
		c4.398,17.703,17.637,52.437,54.945,67.64c7.856,3.18,16.352,4.875,24.578,4.875c20.957,0,38.422-10.801,44.519-27.558
		c3.794-10.426,5.856-30.504-17.777-54.95C445.047,330.66,446.775,326.734,447.454,322.438z M410.485,395.726
		c-2.105-0.266-4.234-0.684-6.37-1.27c-0.661-0.18-1.317-0.379-1.969-0.59c-1.094-0.352-2.184-0.707-3.274-1.149
		c-26.004-10.598-37.074-34.058-41.539-48.816h64.965c0.442,0,0.879,0,1.285-0.066c33.618,30.77,16.458,52.269-7.785,52.269
		c-1.015,0-2.054-0.078-3.094-0.156C411.962,395.894,411.227,395.82,410.485,395.726z M150.548,199.305v29.863v3.59l2.066,1.184
		l21.16,12.258l7.207,4.16l30.473-17.602v-35.175l-30.473-17.57l-16.121,9.301l-13.266,7.5c7.75-15.191,18.355-28.363,31.066-39.379
		c2.55-2.168,5.054-4.378,7.801-6.371v12.528l30.469,17.609l30.472-17.609v-35.172l-2.476-1.426l-1.59-1.035
		c9.805-2.012,20.133-3.051,30.797-3.188c0.649,0.008,1.297,0.012,1.946,0.027l-9.718,5.622v35.172l30.437,17.609l30.465-17.609
		v-25.203l0.051-7.719c6.586,2.203,12.894,4.797,18.906,7.84v25.082l30.472,17.609l13.371-7.718
		c3.938,4.766,7.485,9.867,10.711,15.191c0.07,0.121,0.148,0.226,0.218,0.348l-14.824,8.562v35.206l30.469,17.57l2.59-1.492
		l0.938-0.477c0.398,3.922,0.637,7.91,0.703,11.961c-0.004,0.024,0,0.043,0,0.063h-24.68l-19.496-11.238l-19.504,11.238h-40.894
		l-19.496-11.238l-19.469,11.238h-40.894l-19.503-11.238l-19.496,11.238h-31.758h-9.105l-10.563-6.094l-8.937-5.144l-3.031,1.738
		l-1.566,0.801c0.855-11.438,2.91-22.406,6.121-32.738c1.449-4.742,3.23-9.305,5.152-13.778
		C148.65,203.219,149.506,201.222,150.548,199.305z M431.704,291.754l-1.043,6.75l-3.285,20.75c-0.066,0.336-0.137,0.68-0.27,1.016
		c-0.711,1.961-2.645,3.32-4.809,3.32h-27.625h-34.43h-24.813H234.743h-24.812h-34.434h-36.051c-0.171,0-0.304,0-0.476-0.035
		c-2.336-0.207-4.266-1.965-4.602-4.301l-3.286-20.75l-0.613-3.828c3.422-1.184,6.062-2.234,7.687-2.946
		c0.274-0.133,0.543-0.234,0.746-0.34h89.445L431.704,291.754z M212.857,343.945c-4.508,14.766-15.582,38.184-41.554,48.774
		c-1.09,0.442-2.184,0.797-3.282,1.149c-0.648,0.21-1.301,0.41-1.957,0.59c-2.141,0.586-4.27,1.004-6.379,1.27
		c-0.738,0.094-1.473,0.168-2.211,0.222c-1.038,0.078-2.082,0.156-3.098,0.156c-24.206,0-41.37-21.465-7.855-52.202h51.434
		L212.857,343.945z M70.732,186.848c3.012,0.266,6.141,0.695,9.422,1.347c0.387,0.074,0.782,0.164,1.172,0.246
		c3.703,0.782,7.562,1.793,11.606,3.098c0.058,0.019,0.117,0.039,0.172,0.058c6.465,2.094,13.359,4.883,20.679,8.454
		c0.95,0.476,1.934,0.949,2.914,1.461c0.914,0.469,1.789,0.91,2.641,1.351c-6.738,18.45-10.394,38.832-10.394,60.77
		c0,2.226,0.206,4.406,0.285,6.614c0.062,2.094,0.152,4.168,0.266,6.206c0.07,0.981,0.035,1.981,0.125,2.958
		c-1.996,0.402-4.129,0.812-6.328,1.148c-4.844,0.742-10.125,1.219-15.61,1.219c-12.019,0-25.218-2.266-37.746-9.176
		c-7.145-3.961-13-8.902-17.535-14.453h16.383c3.722,0,7.109-1.528,9.582-3.962c0.809-0.847,1.554-1.797,2.129-2.812
		c1.051-1.821,1.641-3.918,1.746-6.145c0.015-0.152,0.074-0.312,0.086-0.465h-0.023c0.004-0.054,0.023-0.102,0.023-0.16H24.205
		c-11.172-26.778,2.168-58.094,39.945-58.094c1.333,0,2.715,0.07,4.106,0.148C69.072,186.707,69.9,186.774,70.732,186.848z"/>
	<polygon class="st0" points="291.349,232.758 291.349,197.582 260.88,180.012 230.411,197.582 230.411,232.758 260.88,250.359 	"/>
	<polygon class="st0" points="371.212,232.789 371.212,197.582 340.743,180.012 310.271,197.582 310.271,232.758 340.743,250.359 	
		"/>
</g>
</svg>
